<mxfile host="app.diagrams.net" modified="2020-10-19T10:10:49.432Z" agent="5.0 (Windows)" etag="73bG007jk5UlA-tb2UGk" version="13.8.0" type="github">
  <diagram id="58SHCXz_HKoh9nA5pj4z" name="Page-1">
    <mxGraphModel dx="942" dy="1752" grid="1" gridSize="10" guides="1" tooltips="1" connect="1" arrows="1" fold="1" page="1" pageScale="1" pageWidth="827" pageHeight="1169" math="0" shadow="0">
      <root>
        <mxCell id="0" />
        <mxCell id="1" parent="0" />
        <mxCell id="As6QNmNAlsdrrVxkSO4y-1" value="Odbiorca" style="shape=umlActor;verticalLabelPosition=bottom;verticalAlign=top;html=1;outlineConnect=0;fillColor=#e1d5e7;strokeColor=#9673a6;" vertex="1" parent="1">
          <mxGeometry x="760" y="240" width="30" height="60" as="geometry" />
        </mxCell>
        <mxCell id="As6QNmNAlsdrrVxkSO4y-25" value="&lt;b&gt;&lt;font style=&quot;font-size: 16px&quot;&gt;Paczkomat&lt;/font&gt;&lt;/b&gt;" style="rounded=0;whiteSpace=wrap;html=1;strokeWidth=1;fontSize=11;labelPosition=center;verticalLabelPosition=middle;align=center;verticalAlign=middle;fillColor=#dae8fc;strokeColor=#6c8ebf;" vertex="1" parent="1">
          <mxGeometry x="210" y="110" width="450" height="210" as="geometry" />
        </mxCell>
        <mxCell id="As6QNmNAlsdrrVxkSO4y-26" value="Nadawca" style="shape=umlActor;verticalLabelPosition=bottom;verticalAlign=top;html=1;outlineConnect=0;fillColor=#ffe6cc;strokeColor=#d79b00;" vertex="1" parent="1">
          <mxGeometry x="70" y="250" width="30" height="60" as="geometry" />
        </mxCell>
        <mxCell id="As6QNmNAlsdrrVxkSO4y-30" value="Kurier" style="shape=umlActor;verticalLabelPosition=bottom;verticalAlign=top;html=1;outlineConnect=0;fillColor=#f8cecc;strokeColor=#b85450;" vertex="1" parent="1">
          <mxGeometry x="435" y="400" width="30" height="60" as="geometry" />
        </mxCell>
        <mxCell id="As6QNmNAlsdrrVxkSO4y-41" style="edgeStyle=orthogonalEdgeStyle;rounded=0;orthogonalLoop=1;jettySize=auto;html=1;fontSize=12;entryX=1;entryY=0.3333333333333333;entryDx=0;entryDy=0;entryPerimeter=0;" edge="1" parent="1" source="As6QNmNAlsdrrVxkSO4y-35" target="As6QNmNAlsdrrVxkSO4y-26">
          <mxGeometry relative="1" as="geometry" />
        </mxCell>
        <mxCell id="As6QNmNAlsdrrVxkSO4y-35" value="Nadawanie Paczki" style="ellipse;whiteSpace=wrap;html=1;" vertex="1" parent="1">
          <mxGeometry x="230" y="230" width="120" height="80" as="geometry" />
        </mxCell>
        <mxCell id="As6QNmNAlsdrrVxkSO4y-42" style="edgeStyle=orthogonalEdgeStyle;rounded=0;orthogonalLoop=1;jettySize=auto;html=1;fontSize=12;" edge="1" parent="1" source="As6QNmNAlsdrrVxkSO4y-36" target="As6QNmNAlsdrrVxkSO4y-30">
          <mxGeometry relative="1" as="geometry" />
        </mxCell>
        <mxCell id="As6QNmNAlsdrrVxkSO4y-36" value="Dostarczanie Paczek" style="ellipse;whiteSpace=wrap;html=1;strokeWidth=1;fontSize=12;" vertex="1" parent="1">
          <mxGeometry x="390" y="230" width="120" height="80" as="geometry" />
        </mxCell>
        <mxCell id="As6QNmNAlsdrrVxkSO4y-40" style="edgeStyle=orthogonalEdgeStyle;rounded=0;orthogonalLoop=1;jettySize=auto;html=1;fontSize=12;" edge="1" parent="1" source="As6QNmNAlsdrrVxkSO4y-37" target="As6QNmNAlsdrrVxkSO4y-1">
          <mxGeometry relative="1" as="geometry" />
        </mxCell>
        <mxCell id="As6QNmNAlsdrrVxkSO4y-37" value="Odbieranie paczek" style="ellipse;whiteSpace=wrap;html=1;strokeWidth=1;fontSize=12;" vertex="1" parent="1">
          <mxGeometry x="530" y="230" width="120" height="80" as="geometry" />
        </mxCell>
        <mxCell id="As6QNmNAlsdrrVxkSO4y-43" value="&lt;div&gt;Wysyłanie powiadomień&lt;/div&gt;&lt;div&gt;do klienta&lt;br&gt;&lt;/div&gt;" style="ellipse;whiteSpace=wrap;html=1;strokeWidth=1;fontSize=12;" vertex="1" parent="1">
          <mxGeometry x="240" y="120" width="120" height="80" as="geometry" />
        </mxCell>
        <mxCell id="As6QNmNAlsdrrVxkSO4y-44" value="Infolinia" style="ellipse;whiteSpace=wrap;html=1;strokeWidth=1;fontSize=12;" vertex="1" parent="1">
          <mxGeometry x="390" y="120" width="120" height="80" as="geometry" />
        </mxCell>
        <mxCell id="As6QNmNAlsdrrVxkSO4y-49" style="edgeStyle=orthogonalEdgeStyle;rounded=0;orthogonalLoop=1;jettySize=auto;html=1;exitX=1;exitY=0.3333333333333333;exitDx=0;exitDy=0;exitPerimeter=0;entryX=0.5;entryY=0;entryDx=0;entryDy=0;fontSize=12;" edge="1" parent="1" source="As6QNmNAlsdrrVxkSO4y-45" target="As6QNmNAlsdrrVxkSO4y-44">
          <mxGeometry relative="1" as="geometry" />
        </mxCell>
        <mxCell id="As6QNmNAlsdrrVxkSO4y-50" style="edgeStyle=orthogonalEdgeStyle;rounded=0;orthogonalLoop=1;jettySize=auto;html=1;exitX=0;exitY=0.3333333333333333;exitDx=0;exitDy=0;exitPerimeter=0;fontSize=12;" edge="1" parent="1" source="As6QNmNAlsdrrVxkSO4y-45" target="As6QNmNAlsdrrVxkSO4y-43">
          <mxGeometry relative="1" as="geometry" />
        </mxCell>
        <mxCell id="As6QNmNAlsdrrVxkSO4y-51" style="edgeStyle=orthogonalEdgeStyle;rounded=0;orthogonalLoop=1;jettySize=auto;html=1;fontSize=12;" edge="1" parent="1" source="As6QNmNAlsdrrVxkSO4y-45" target="As6QNmNAlsdrrVxkSO4y-54">
          <mxGeometry relative="1" as="geometry">
            <mxPoint x="375" y="-80" as="targetPoint" />
            <Array as="points">
              <mxPoint x="375" y="-30" />
              <mxPoint x="590" y="-30" />
            </Array>
          </mxGeometry>
        </mxCell>
        <mxCell id="As6QNmNAlsdrrVxkSO4y-45" value="&lt;div&gt;Zespół zarządzający &lt;br&gt;&lt;/div&gt;&lt;div&gt;przesyłkami&lt;br&gt;&lt;/div&gt;" style="shape=umlActor;verticalLabelPosition=bottom;verticalAlign=top;html=1;outlineConnect=0;strokeWidth=1;fontSize=12;fillColor=#dae8fc;strokeColor=#6c8ebf;" vertex="1" parent="1">
          <mxGeometry x="360" width="30" height="60" as="geometry" />
        </mxCell>
        <mxCell id="As6QNmNAlsdrrVxkSO4y-54" value="Wysyłanie zleceń do kurierów" style="ellipse;whiteSpace=wrap;html=1;strokeWidth=1;fontSize=12;" vertex="1" parent="1">
          <mxGeometry x="530" y="120" width="120" height="80" as="geometry" />
        </mxCell>
      </root>
    </mxGraphModel>
  </diagram>
</mxfile>
